<?xml version="1.0" standalone="no"?>
<!DOCTYPE svg PUBLIC "-//W3C//DTD SVG 20010904//EN"
 "http://www.w3.org/TR/2001/REC-SVG-20010904/DTD/svg10.dtd">
<svg version="1.0" xmlns="http://www.w3.org/2000/svg"
 width="103.000000pt" height="40.000000pt" viewBox="0 0 103.000000 40.000000"
 preserveAspectRatio="xMidYMid meet">

<g transform="translate(0.000000,40.000000) scale(0.100000,-0.100000)"
fill="#000000" stroke="none">
<path d="M400 200 l0 -180 64 0 c48 0 70 5 87 19 23 19 24 24 24 161 0 137 -1
142 -24 161 -17 14 -39 19 -87 19 l-64 0 0 -180z m105 -1 c0 -95 -3 -114 -15
-114 -12 0 -16 20 -18 104 -3 112 1 135 21 128 9 -3 12 -35 12 -118z"/>
<path d="M590 200 l0 -180 70 0 70 0 0 35 c0 33 -2 35 -35 35 -34 0 -35 1 -35
39 0 37 2 40 33 43 28 3 32 7 35 36 3 31 2 32 -32 32 -34 0 -36 2 -36 35 0 34
1 35 38 35 l38 0 13 -107 c22 -199 16 -183 72 -183 33 0 49 4 49 13 0 6 9 82
20 167 25 196 26 182 -12 178 l-33 -3 -10 -105 c-5 -58 -13 -100 -16 -95 -4 6
-10 46 -13 90 -11 124 -2 115 -117 115 l-99 0 0 -180z"/>
<path d="M73 249 c-51 -30 -53 -32 -53 -74 0 -41 2 -45 50 -74 28 -17 52 -31
55 -31 3 0 5 15 5 33 0 26 -6 36 -32 51 -33 20 -32 21 17 51 11 7 16 20 13 42
l-3 32 -52 -30z"/>
<path d="M210 245 c0 -28 5 -37 30 -50 17 -9 30 -19 30 -24 0 -5 -13 -14 -30
-21 -25 -10 -30 -18 -30 -47 0 -40 4 -40 69 2 38 23 41 29 41 69 0 42 -2 46
-50 75 -28 17 -52 31 -55 31 -3 0 -5 -16 -5 -35z"/>
<path d="M940 86 c-6 -8 -10 -25 -8 -38 2 -19 9 -23 38 -23 29 0 36 4 38 23 4
28 -14 52 -38 52 -10 0 -23 -7 -30 -14z"/>
</g>
</svg>
